<?xml version="1.0" standalone="no"?>
<!DOCTYPE svg PUBLIC "-//W3C//DTD SVG 20010904//EN"
 "http://www.w3.org/TR/2001/REC-SVG-20010904/DTD/svg10.dtd">
<svg version="1.0" xmlns="http://www.w3.org/2000/svg"
 width="1000.000000pt" height="1000.000000pt" viewBox="0 0 1000.000000 1000.000000"
 preserveAspectRatio="xMidYMid meet">

<g transform="translate(0.000000,1000.000000) scale(0.100000,-0.100000)"
fill="#ffffff" stroke="none">
<path d="M4820 8569 c-964 -83 -1872 -432 -2556 -980 -309 -249 -600 -576
-807 -906 -93 -148 -265 -499 -326 -663 -131 -354 -211 -704 -258 -1120 -25
-221 -25 -891 -1 -1101 23 -194 51 -329 99 -473 279 -839 1160 -1415 2599
-1700 572 -113 1257 -172 1710 -147 1324 74 2398 384 3063 882 338 253 583
583 701 939 62 189 86 330 98 580 13 278 4 755 -17 955 -91 864 -371 1581
-851 2182 -100 124 -329 360 -460 473 -470 405 -1045 710 -1693 896 -464 133
-1003 209 -1301 183z m400 -1444 c405 -50 826 -184 1156 -366 729 -404 1172
-1038 1314 -1879 36 -217 44 -324 45 -585 0 -254 -1 -262 -28 -359 -110 -394
-383 -689 -842 -912 -417 -202 -956 -328 -1590 -374 -448 -32 -1040 32 -1535
165 -678 183 -1138 487 -1347 890 -54 106 -88 203 -114 328 -17 85 -21 136
-20 302 5 1136 486 1984 1393 2455 352 182 719 291 1163 343 80 10 294 5 405
-8z"/>
<path d="M3918 5941 c-154 -50 -274 -183 -307 -339 -15 -74 -14 -235 4 -310
56 -239 274 -412 517 -412 304 0 526 215 545 528 15 248 -74 419 -264 510
l-78 37 -180 2 c-153 2 -189 0 -237 -16z"/>
<path d="M5635 5939 c-120 -42 -210 -121 -266 -234 -35 -73 -49 -142 -49 -249
1 -175 50 -306 159 -416 218 -222 570 -214 781 17 59 65 114 174 129 257 16
85 14 232 -4 299 -42 161 -154 281 -306 328 -91 28 -359 27 -444 -2z"/>
<path d="M4542 4571 c-64 -42 -80 -68 -62 -101 6 -11 63 -99 127 -196 117
-178 133 -194 191 -194 43 0 69 25 134 126 33 52 63 94 66 94 4 0 36 -45 72
-100 65 -98 89 -120 135 -120 53 0 71 19 193 202 150 225 150 227 57 288 -85
55 -95 51 -181 -81 l-66 -100 -65 98 c-36 54 -72 104 -81 111 -9 6 -37 12 -62
12 -25 0 -53 -6 -62 -12 -9 -7 -45 -57 -81 -112 l-65 -98 -70 105 c-63 93 -86
117 -111 117 -4 0 -35 -18 -69 -39z"/>
</g>
</svg>
